<mxfile host="app.diagrams.net" modified="2024-02-08T06:18:06.738Z" agent="Mozilla/5.0 (Windows NT 10.0; Win64; x64) AppleWebKit/537.36 (KHTML, like Gecko) Chrome/121.0.0.0 Safari/537.36" version="23.1.2" etag="ugeUU0_uHQrL32mfx9lp" type="github">
  <diagram name="페이지-1" id="L8peQ_kUmEtl-Q2XXJZm">
    <mxGraphModel>
      <root>
        <mxCell id="0" />
        <mxCell id="1" parent="0" />
      </root>
    </mxGraphModel>
  </diagram>
</mxfile>
